<svg width="101" height="122" viewBox="0 0 101 122" fill="none" xmlns="http://www.w3.org/2000/svg">
<g filter="url(#filter0_d_425_14)">
<rect x="40.1709" y="6" width="51.1056" height="23.8901" transform="rotate(50 40.1709 6)" fill="#0C0A0A"/>
<rect x="72.9814" y="45.0615" width="26.6302" height="66.1142" transform="rotate(50 72.9814 45.0615)" fill="#858585"/>
<rect x="10.5" y="6.6311" width="28.6961" height="100.869" fill="#FFF59B" stroke="black"/>
</g>
<path d="M38.5 7V107H20.5L38.5 7Z" fill="white"/>
<path d="M30.335 94.662C30.335 92.876 29.8537 91.4447 28.891 90.368C27.9157 89.2787 26.4527 88.734 24.502 88.734C22.5513 88.734 20.9997 89.3483 19.847 90.577C18.6943 91.793 18.118 93.3003 18.118 95.099C18.118 96.2517 18.1497 97.2523 18.213 98.101H30.183C30.2843 97.2777 30.335 96.1313 30.335 94.662ZM17.282 95.099C17.282 93.009 17.9343 91.261 19.239 89.855C20.531 88.449 22.2917 87.746 24.521 87.746C25.6483 87.746 26.649 87.9297 27.523 88.297C28.3843 88.6517 29.0747 89.1457 29.594 89.779C30.6453 91.0837 31.171 92.7113 31.171 94.662C31.171 95.9413 31.1013 97.3917 30.962 99.013H17.415C17.3263 97.721 17.282 96.4163 17.282 95.099ZM31.19 78.2948C31.19 80.0555 30.5757 81.5312 29.347 82.7218C28.1183 83.9125 26.6173 84.5078 24.844 84.5078C23.058 84.5078 21.5507 83.9125 20.322 82.7218C19.0933 81.5312 18.479 80.0555 18.479 78.2948C18.479 76.5342 19.0933 75.0585 20.322 73.8678C21.5507 72.6772 23.058 72.0818 24.844 72.0818C26.6173 72.0818 28.1183 72.6772 29.347 73.8678C30.5757 75.0585 31.19 76.5342 31.19 78.2948ZM19.258 78.2948C19.258 79.8148 19.7963 81.0815 20.873 82.0948C21.9497 83.0955 23.2733 83.5958 24.844 83.5958C26.402 83.5958 27.7193 83.0955 28.796 82.0948C29.86 81.0815 30.392 79.8148 30.392 78.2948C30.392 76.7622 29.86 75.4955 28.796 74.4948C27.7193 73.4942 26.402 72.9938 24.844 72.9938C23.2733 72.9938 21.9497 73.4942 20.873 74.4948C19.7963 75.4955 19.258 76.7622 19.258 78.2948ZM31 68.2732H18.593V67.8552L27.903 59.7612C28.2323 59.4699 28.5617 59.2039 28.891 58.9632C29.2077 58.7099 29.3723 58.5769 29.385 58.5642C29.081 58.5896 28.4857 58.6022 27.599 58.6022H18.669V57.7282H31.076V58.1462L21.614 66.3922L20.341 67.4372C20.5943 67.4119 21.1897 67.3992 22.127 67.3992H31V68.2732ZM26.725 52.5617L31 54.3287V55.2217L18.593 50.0537V49.5407L31 44.3347V45.3037L26.725 47.0897V52.5617ZM19.999 49.8447C20.569 50.0347 21.044 50.2057 21.424 50.3577L25.984 52.2577V47.3937L21.443 49.2747C20.7337 49.566 20.2523 49.756 19.999 49.8447ZM30.354 36.1138V36.6268L21.633 40.2178C21.291 40.3698 20.892 40.5218 20.436 40.6738C20.4487 40.6738 20.5183 40.6865 20.645 40.7118C20.7717 40.7245 20.9427 40.7435 21.158 40.7688C21.3607 40.7941 21.5317 40.8195 21.671 40.8448L31 42.2698V43.1248L18.593 41.1108V40.5978L27.694 36.7598C28.454 36.4558 28.853 36.3038 28.891 36.3038C28.625 36.2151 28.2323 36.0441 27.713 35.7908L18.593 31.5158V31.0028L31 29.1218V30.0338L21.633 31.3828C21.0123 31.4715 20.6007 31.5158 20.398 31.5158L21.652 32.0668L30.354 36.1138ZM31 25.8572H18.669V24.9832H31V25.8572ZM19.201 17.9317C19.201 18.6157 19.3657 19.173 19.695 19.6037C20.0243 20.0344 20.4867 20.2497 21.082 20.2497C21.766 20.2497 22.3803 19.9647 22.925 19.3947C23.3177 18.9894 23.7357 18.47 24.179 17.8367C24.6097 17.1907 24.92 16.7474 25.11 16.5067C25.3 16.266 25.5597 15.9747 25.889 15.6327C26.5097 15.012 27.2253 14.7017 28.036 14.7017C29.0873 14.7017 29.8853 15.0563 30.43 15.7657C30.962 16.4624 31.228 17.444 31.228 18.7107C31.228 19.9647 30.8987 21.016 30.24 21.8647L29.575 21.4087C30.1577 20.5474 30.449 19.6354 30.449 18.6727C30.449 17.71 30.2463 16.9627 29.841 16.4307C29.4357 15.886 28.8657 15.6137 28.131 15.6137C27.4977 15.6137 26.915 15.886 26.383 16.4307C26.003 16.8107 25.5913 17.3237 25.148 17.9697C24.7047 18.603 24.388 19.0464 24.198 19.2997C23.9953 19.553 23.7293 19.8507 23.4 20.1927C22.754 20.8387 22.0067 21.1617 21.158 21.1617C20.3093 21.1617 19.6443 20.864 19.163 20.2687C18.6817 19.6607 18.441 18.8247 18.441 17.7607C18.441 16.6967 18.65 15.7404 19.068 14.8917L19.771 15.2147C19.391 16 19.201 16.9057 19.201 17.9317Z" fill="black"/>
<defs>
<filter id="filter0_d_425_14" x="0" y="0" width="100.099" height="122" filterUnits="userSpaceOnUse" color-interpolation-filters="sRGB">
<feFlood flood-opacity="0" result="BackgroundImageFix"/>
<feColorMatrix in="SourceAlpha" type="matrix" values="0 0 0 0 0 0 0 0 0 0 0 0 0 0 0 0 0 0 127 0" result="hardAlpha"/>
<feOffset dy="4"/>
<feGaussianBlur stdDeviation="5"/>
<feComposite in2="hardAlpha" operator="out"/>
<feColorMatrix type="matrix" values="0 0 0 0 0 0 0 0 0 0 0 0 0 0 0 0 0 0 0.25 0"/>
<feBlend mode="normal" in2="BackgroundImageFix" result="effect1_dropShadow_425_14"/>
<feBlend mode="normal" in="SourceGraphic" in2="effect1_dropShadow_425_14" result="shape"/>
</filter>
</defs>
</svg>
